#!OML:ASF I:\Actors\actors\Patient Classification 1\Patient 1\Session 1\Subject1.ASF
:FULLY-SPECIFIED
:DEGREES
1214
root 0.768362 17.5319 8.89438 10.8091 2.54175 -9.1294
lowerback 0.662854 -1.22944 4.53523
upperback -7.48145 -1.14176 4.10435
thorax -8.24871 -0.70649 1.8853
lowerneck -16.0055 -4.53204 -0.572537
upperneck 24.9684 -6.7662 1.64218
head 10.7599 -2.95686 -0.25773
rclavicle 2.2444e-014 2.18663e-015
rhumerus 20.3453 54.3412 -31.4675
rradius 84.6051
rwrist -1.62665
rhand 9.76683 -55.9489
rfingers 7.12502
rthumb 34.9052 277.473
lclavicle 2.2444e-014 2.18663e-015
lhumerus 60.3263 -64.7255 28.4687
lradius 62.6417
lwrist 34.7094
lhand -26.0761 6.89653
lfingers 7.12502
lthumb 0.4722 36.8758
rfemur -6.2971 27.8793 23.9456
rtibia 0.702813
rfoot -12.7737 -31.1452
rtoes 5.85092
lfemur 2.56279 -56.2717 -9.97529
ltibia -5.27277
lfoot -26.8814 59.7295
ltoes 13.8896
1215
root 0.767643 17.531 8.90176 10.8145 2.60333 -9.10035
lowerback 0.66396 -1.24769 4.53795
upperback -7.53421 -1.16424 4.08533
thorax -8.30773 -0.719221 1.8677
lowerneck -15.9313 -4.55141 -0.591335
upperneck 24.9468 -6.80648 1.70951
head 10.7416 -2.97026 -0.234113
rclavicle 5.77718e-015 -2.43511e-014
rhumerus 19.9204 54.5016 -31.2226
rradius 86.2431
rwrist -2.0646
rhand 6.0239 -56.882
rfingers 7.12502
rthumb 31.3461 275.783
lclavicle 5.77718e-015 -2.43511e-014
lhumerus 61.6301 -64.7645 25.9438
lradius 64.6776
lwrist 34.3444
lhand -27.462 5.80284
lfingers 7.12502
lthumb -0.866321 35.7808
rfemur -6.23632 27.8967 23.9363
rtibia 0.64611
rfoot -12.7888 -31.2551
rtoes 5.89525
lfemur 2.54699 -56.25 -9.98697
ltibia -5.27557
lfoot -26.7595 59.6741
ltoes 13.8086
1216
root 0.766777 17.5306 8.91039 10.8219 2.63188 -9.05414
lowerback 0.662701 -1.25539 4.54152
upperback -7.58983 -1.17395 4.04559
thorax -8.36883 -0.726623 1.82671
lowerneck -15.8218 -4.63236 -0.747286
upperneck 24.9218 -6.92761 1.88953
head 10.7267 -3.02032 -0.158314
rclavicle -1.29334e-014 4.6118e-014
rhumerus 19.2652 54.4558 -31.1564
rradius 87.8909
rwrist -1.32803
rhand 3.56698 -57.1991
rfingers 7.12502
rthumb 29.0022 275.038
lclavicle -1.29334e-014 4.6118e-014
lhumerus 62.8539 -64.6032 23.3661
lradius 66.7418
lwrist 33.9926
lhand -28.2305 4.64752
lfingers 7.12502
lthumb -1.60851 34.6212
rfemur -6.17069 27.9056 23.918
rtibia 0.606408
rfoot -12.757 -31.3362
rtoes 5.70134
lfemur 2.57692 -56.2456 -10.0661
ltibia -5.27561
lfoot -26.6629 59.6574
ltoes 13.6482
1217
root 0.766168 17.5309 8.91959 10.8264 2.63148 -9.06821
lowerback 0.648251 -1.23125 4.62361
upperback -7.63698 -1.13757 4.01312
thorax -8.41513 -0.716249 1.74532
lowerneck -15.541 -4.73946 -0.771033
upperneck 24.5968 -7.05474 1.88011
head 10.5548 -3.09225 -0.163345
rclavicle -9.16894e-015 -3.52843e-014
rhumerus 18.324 54.2033 -31.3429
rradius 89.4948
rwrist 0.271195
rhand 2.3593 -56.9464
rfingers 7.12502
rthumb 27.8482 275.098
lclavicle -9.16894e-015 -3.52843e-014
lhumerus 63.6297 -64.2257 21.2334
lradius 68.7628
lwrist 34.0807
lhand -28.8569 3.33102
lfingers 7.12502
lthumb -2.21351 33.2993
rfemur -6.12832 27.8378 23.963
rtibia 0.587807
rfoot -12.6867 -31.2948
rtoes 5.3851
lfemur 2.62327 -56.1648 -10.0769
ltibia -5.3068
lfoot -26.594 59.5848
ltoes 13.666
1218
root 0.766081 17.5314 8.9286 10.8343 2.59259 -9.09946
lowerback 0.637146 -1.19162 4.70793
upperback -7.67889 -1.07861 4.00486
thorax -8.45716 -0.693912 1.68642
lowerneck -15.5731 -4.67349 -0.734894
upperneck 24.5822 -6.95367 1.82138
head 10.5501 -3.04941 -0.176703
rclavicle -3.43463e-014 3.23025e-014
rhumerus 17.6924 53.9486 -31.3409
rradius 91.2206
rwrist 1.26307
rhand 1.51182 -56.8253
rfingers 7.12502
rthumb 27.0376 275.09
lclavicle -3.43463e-014 3.23025e-014
lhumerus 63.4252 -63.7189 20.0697
lradius 70.7875
lwrist 34.413
lhand -29.4913 1.50577
lfingers 7.12502
lthumb -2.82621 31.4668
rfemur -6.11141 27.8508 24.0054
rtibia 0.577846
rfoot -12.7413 -31.2545
rtoes 5.49749
lfemur 2.62697 -55.9992 -10.0394
ltibia -5.31161
lfoot -26.6022 59.4467
ltoes 13.8942
1219
root 0.766069 17.5317 8.93733 10.8456 2.489 -9.10911
lowerback 0.637498 -1.14618 4.713
upperback -7.71334 -1.01372 4.02458
thorax -8.49477 -0.662006 1.70068
lowerneck -15.759 -4.61789 -0.781603
upperneck 24.7151 -6.8749 1.84602
head 10.6367 -3.00941 -0.156236
rclavicle -2.80411e-014 6.26172e-014
rhumerus 17.3507 53.7298 -31.111
rradius 93.1614
rwrist 1.52116
rhand 0.832185 -56.7849
rfingers 7.12502
rthumb 26.3872 275.031
lclavicle -2.80411e-014 6.26172e-014
lhumerus 62.4092 -63.1333 19.5844
lradius 72.9219
lwrist 34.2631
lhand -30.1437 -0.769599
lfingers 7.12502
lthumb -3.45622 29.1821
rfemur -6.11259 27.8947 24.0101
rtibia 0.585777
rfoot -12.8597 -31.168
rtoes 5.92852
lfemur 2.64814 -55.8546 -10.0731
ltibia -5.25428
lfoot -26.8233 59.3526
ltoes 14.1043
1220
root 0.765049 17.5313 8.94576 10.8398 2.36866 -9.19122
lowerback 0.758867 -1.10079 4.88851
upperback -7.79534 -0.931267 3.9896
thorax -8.66194 -0.637121 1.56649
lowerneck -15.8535 -4.58213 -0.846898
upperneck 24.8525 -6.85772 2.00743
head 10.7151 -2.98401 -0.09024
rclavicle -1.86361e-016 3.598e-014
rhumerus 16.7097 53.5645 -31.2038
rradius 95.1971
rwrist 1.97329
rhand -0.0022237 -56.75
rfingers 7.12502
rthumb 25.5882 274.949
lclavicle -1.86361e-016 3.598e-014
lhumerus 61.4635 -62.6313 18.7048
lradius 75.2711
lwrist 33.3098
lhand -31.374 -2.67066
lfingers 7.12502
lthumb -4.64432 27.2584
rfemur -6.11037 27.8872 24.1181
rtibia 0.628978
rfoot -12.8626 -31.0091
rtoes 6.02261
lfemur 2.73647 -55.6875 -10.0604
ltibia -5.24365
lfoot -26.9271 59.3034
ltoes 14.0481
1221
root 0.763607 17.5306 8.95425 10.83 2.25065 -9.23239
lowerback 0.799119 -1.05678 4.86442
upperback -7.81194 -0.862681 4.07989
thorax -8.70195 -0.598232 1.67184
lowerneck -15.9731 -4.5497 -1.01622
upperneck 24.9065 -6.7916 2.09712
head 10.7675 -2.95572 -0.024949
rclavicle 1.62134e-014 -3.97569e-016
rhumerus 16.2602 53.3931 -30.9776
rradius 97.2538
rwrist 3.21684
rhand -0.871419 -56.8335
rfingers 7.12502
rthumb 24.7554 274.748
lclavicle 1.62134e-014 -3.97569e-016
lhumerus 60.1847 -62.0695 18.2264
lradius 77.5603
lwrist 31.0731
lhand -33.0492 -4.44345
lfingers 7.12502
lthumb -6.26171 25.444
rfemur -6.1065 27.816 24.1873
rtibia 0.684504
rfoot -12.755 -30.8001
rtoes 5.71431
lfemur 2.85671 -55.5404 -10.1192
ltibia -5.24104
lfoot -26.9363 59.2637
ltoes 14.0055
1222
root 0.762701 17.5305 8.9617 10.8347 2.07636 -9.17759
lowerback 0.889716 -0.993703 4.91224
upperback -7.86094 -0.767738 4.04031
thorax -8.8105 -0.557941 1.59969
lowerneck -16.037 -4.52724 -1.16602
upperneck 24.9174 -6.76042 2.24973
head 10.7956 -2.93554 0.0566975
rclavicle 4.32357e-015 -1.68967e-015
rhumerus 15.7568 53.2781 -31.0553
rradius 99.145
rwrist 5.17931
rhand -1.21906 -56.8082
rfingers 7.12502
rthumb 24.4222 274.728
lclavicle 4.32357e-015 -1.68967e-015
lhumerus 58.6134 -61.5993 17.8461
lradius 79.7525
lwrist 28.1532
lhand -34.9457 -7.19816
lfingers 7.12502
lthumb -8.09235 22.6269
rfemur -6.1489 27.6176 24.1133
rtibia 0.750931
rfoot -12.6199 -30.4224
rtoes 5.48348
lfemur 2.9769 -55.4139 -10.3205
ltibia -5.18886
lfoot -27.0309 59.242
ltoes 14.1401
1223
root 0.761806 17.5313 8.96688 10.8309 1.83544 -9.17784
lowerback 0.94253 -0.944662 4.79592
upperback -7.87435 -0.695381 4.15309
thorax -8.8524 -0.50963 1.77994
lowerneck -15.9225 -4.49701 -1.39275
upperneck 24.7156 -6.68029 2.37891
head 10.7109 -2.90948 0.156438
rclavicle 2.00151e-014 1.05356e-014
rhumerus 15.7794 53.2478 -30.7689
rradius 100.748
rwrist 6.84851
rhand -0.707313 -56.372
rfingers 7.12502
rthumb 24.9127 275.232
lclavicle 2.00151e-014 1.05356e-014
lhumerus 56.5884 -61.1012 17.9486
lradius 81.8958
lwrist 25.7451
lhand -36.2609 -10.444
lfingers 7.12502
lthumb -9.36154 19.3281
rfemur -6.23056 27.3238 24.0898
rtibia 0.861298
rfoot -12.4342 -29.8936
rtoes 5.28222
lfemur 3.10856 -55.1968 -10.4544
ltibia -5.17233
lfoot -27.1549 59.2129
ltoes 14.3107
1224
root 0.761592 17.5322 8.97185 10.832 1.54162 -9.17104
lowerback 0.939974 -0.902403 4.89656
upperback -7.85611 -0.637882 4.10865
thorax -8.83291 -0.490524 1.67102
lowerneck -15.7945 -4.46352 -1.57065
upperneck 24.5082 -6.66682 2.71534
head 10.63 -2.88443 0.312175
rclavicle 2.43511e-014 1.39149e-015
rhumerus 15.8499 53.236 -30.8369
rradius 102.127
rwrist 7.3278
rhand 0.665257 -55.9035
rfingers 7.12502
rthumb 26.2274 275.889
lclavicle 2.43511e-014 1.39149e-015
lhumerus 54.4154 -60.7007 17.9913
lradius 84.0266
lwrist 24.0109
lhand -36.1525 -12.4789
lfingers 7.12502
lthumb -9.25696 17.2979
rfemur -6.30699 27.108 24.0587
rtibia 0.953718
rfoot -12.1881 -29.4266
rtoes 4.80369
lfemur 3.25227 -54.9462 -10.6017
ltibia -5.17442
lfoot -27.4086 59.1707
ltoes 14.5804
1225
root 0.762579 17.5336 8.97743 10.8356 1.16086 -9.10799
lowerback 0.937545 -0.833898 4.94328
upperback -7.83601 -0.550098 4.03971
thorax -8.80957 -0.45367 1.56329
lowerneck -15.8191 -4.40352 -1.67961
upperneck 24.4973 -6.61368 2.94321
head 10.6429 -2.84243 0.418002
rclavicle -2.16924e-014 2.80286e-014
rhumerus 16.1024 53.4131 -30.8609
rradius 103.309
rwrist 6.83847
rhand 1.80533 -55.9034
rfingers 7.12502
rthumb 27.3184 276.056
lclavicle -2.16924e-014 2.80286e-014
lhumerus 51.9603 -60.4574 18.3251
lradius 86.12
lwrist 23.0957
lhand -35.1484 -13.1545
lfingers 7.12502
lthumb -8.28801 16.663
rfemur -6.35666 26.9663 23.9608
rtibia 1.00949
rfoot -11.9565 -28.9476
rtoes 4.33257
lfemur 3.48931 -54.7917 -10.9245
ltibia -5.13266
lfoot -27.986 59.2159
ltoes 15.046
1226
root 0.762665 17.5365 8.98104 10.8189 0.700875 -9.06873
lowerback 1.01364 -0.741084 4.97301
upperback -7.82131 -0.423395 3.97791
thorax -8.83752 -0.396659 1.47127
lowerneck -15.9818 -4.31964 -1.57937
upperneck 24.6774 -6.51137 2.87237
head 10.7317 -2.78949 0.385579
rclavicle -1.22501e-014 3.06128e-014
rhumerus 16.6358 53.7761 -30.7289
rradius 104.128
rwrist 6.7553
rhand 2.49217 -56.1014
rfingers 7.12502
rthumb 27.9752 275.963
lclavicle -1.22501e-014 3.06128e-014
lhumerus 49.5283 -60.4224 18.5773
lradius 88.2304
lwrist 23.5135
lhand -33.4291 -13.4557
lfingers 7.12502
lthumb -6.62849 16.4205
rfemur -6.39785 26.8521 23.8944
rtibia 1.07423
rfoot -11.7288 -28.4396
rtoes 3.93489
lfemur 3.83595 -54.7447 -11.3205
ltibia -5.0866
lfoot -28.7392 59.4265
ltoes 15.617
